<?xml version="1.0" encoding="UTF-8"?>
<svg version="1.1" xmlns="http://www.w3.org/2000/svg" width="512" height="512">
<path d="M0 0 C1.26263672 -0.01546875 2.52527344 -0.0309375 3.82617188 -0.046875 C14.52931132 -0.00216215 21.82506343 2.2735646 29.7109375 9.5625 C35.36810091 15.91081007 36.59822686 22.93004914 36.640625 31.19140625 C36.64632507 32.05128647 36.65202515 32.91116669 36.65789795 33.79710388 C36.66734663 35.62033866 36.67388141 37.44359051 36.67773438 39.2668457 C36.68737886 42.02782013 36.71837744 44.78803033 36.75 47.54882812 C36.81811591 58.59891034 36.87883962 68.59120712 30.0625 77.875 C29.45535156 78.70644531 28.84820312 79.53789062 28.22265625 80.39453125 C26.4375 82.5 26.4375 82.5 23.5 84.5625 C21.28950106 86.25378165 21.28950106 86.25378165 21.09765625 88.37890625 C21.0600448 90.78186003 21.2249906 93.10647303 21.4375 95.5 C21.45941406 96.36882812 21.48132813 97.23765625 21.50390625 98.1328125 C21.56384766 99.42832031 21.56384766 99.42832031 21.625 100.75 C21.67720703 101.93335938 21.67720703 101.93335938 21.73046875 103.140625 C22.75808963 106.56981291 24.8019593 108.12284564 27.4375 110.5 C28.76587891 111.7375 28.76587891 111.7375 30.12109375 113 C31.02988281 113.825 31.93867187 114.65 32.875 115.5 C33.78121094 116.325 34.68742187 117.15 35.62109375 118 C37.01521484 119.2375 37.01521484 119.2375 38.4375 120.5 C39.170896 121.34377197 39.90429199 122.18754395 40.65991211 123.05688477 C45.37211637 126.93404726 51.64908537 126.60685757 57.48361588 126.95643425 C59.73260569 127.09209327 61.97785739 127.25674285 64.22433472 127.42884827 C69.80656362 127.85086841 75.39168492 128.22665727 80.97747803 128.5980835 C85.69761831 128.91309502 90.41537936 129.24888267 95.13204575 129.61233711 C97.32445361 129.77306538 99.51727604 129.90393979 101.71170044 130.03367615 C113.0800187 130.82808076 123.17898303 133.99063133 131.0390625 142.63671875 C134.22393404 146.88024871 136.26990389 151.33739368 137.4375 156.5 C139.08298828 156.55607422 139.08298828 156.55607422 140.76171875 156.61328125 C142.21617857 156.67896653 143.67060416 156.74541299 145.125 156.8125 C146.2068457 156.84633789 146.2068457 156.84633789 147.31054688 156.88085938 C151.7796267 157.1053337 154.78233565 157.669519 158.4375 160.5 C159.88180855 163.38861709 159.81438506 165.29647701 159.4375 168.5 C157.40866043 171.41045807 155.79091847 173.22605896 152.22040367 173.94875526 C149.39237611 174.11722761 146.60492183 174.11801438 143.7722168 174.06762695 C142.6985939 174.06835709 141.62497101 174.06908722 140.51881409 174.06983948 C136.97426632 174.06635931 133.43103664 174.02747522 129.88671875 173.98828125 C127.42764504 173.97895472 124.96856203 173.97183785 122.50947571 173.96684265 C116.04017443 173.94776061 109.57143528 173.89864811 103.10235596 173.84332275 C96.49995528 173.79215706 89.8974637 173.76933425 83.29492188 173.74414062 C70.34220822 173.69053164 57.38988402 173.6061656 44.4375 173.5 C45.12563628 174.78188218 45.83919492 176.05012793 46.5625 177.3125 C46.95695312 178.02019531 47.35140625 178.72789062 47.7578125 179.45703125 C50.53649919 182.83668971 53.43819056 184.2735383 57.80887115 184.76860511 C60.77815984 184.89124911 63.73203713 184.9044771 66.70384216 184.88768005 C68.41309021 184.89575836 68.41309021 184.89575836 70.15686852 184.90399987 C73.97765415 184.91831486 77.79809506 184.91116674 81.61889648 184.90405273 C84.35716654 184.90811074 87.09541895 184.91661719 89.8336792 184.92485046 C96.50081234 184.94204077 103.16785125 184.94287802 109.83500081 184.93763756 C115.25433483 184.93359512 120.67364101 184.93504029 126.09297371 184.94038582 C126.8644655 184.94113424 127.63595728 184.94188266 128.43082761 184.94265376 C129.99814129 184.94418525 131.56545497 184.9457236 133.13276864 184.94726873 C147.82848332 184.96099456 162.52414477 184.95555546 177.21985824 184.94408352 C190.66194255 184.93415062 204.10388923 184.9470926 217.54595231 184.97101771 C231.3515519 184.99540457 245.15708736 185.00501763 258.96270806 184.99836498 C266.71221899 184.99487189 274.46162405 184.99711076 282.2111187 185.01461601 C288.80795422 185.02933282 295.40460933 185.02998034 302.00144129 185.0125451 C305.36650521 185.00402818 308.73098189 185.00406674 312.09607124 185.01719666 C315.74574454 185.03035076 319.39453901 185.01890701 323.04417419 185.00120544 C324.10526616 185.01081045 325.16635813 185.02041546 326.25960439 185.03031152 C332.52098824 184.96774075 336.376674 184.29192576 341.4375 180.5 C343.03034477 178.68722885 343.03034477 178.68722885 343.875 176.75 C344.390625 175.6775 344.90625 174.605 345.4375 173.5 C344.59597507 173.50368717 343.75445015 173.50737434 342.88742447 173.51117325 C322.42362697 173.59946032 301.95986223 173.66567845 281.49591446 173.70724869 C271.59974585 173.72788542 261.70370427 173.75602721 251.80761719 173.80175781 C243.18349682 173.8415916 234.55946843 173.86742473 225.93525863 173.87635398 C221.36757381 173.8815746 216.80015216 173.89386791 212.23255157 173.92292023 C207.93485867 173.95003478 203.63753777 173.95845308 199.33976746 173.95243073 C197.76112091 173.95353275 196.18246214 173.96151038 194.60388947 173.9768219 C192.45033124 173.99668898 190.29818229 173.9919527 188.14459229 173.98101807 C186.33603445 173.98654882 186.33603445 173.98654882 184.49094009 173.99219131 C180.81045633 173.39892533 179.62428878 172.47621077 177.4375 169.5 C176.96831317 165.74650538 176.90613619 163.46151547 178.75 160.125 C181.89615794 157.09536643 185.22764023 157.3545753 189.37768555 157.29467773 C190.59872482 157.27473251 191.8197641 157.25478729 193.07780457 157.23423767 C194.39662125 157.21752518 195.71543793 157.20081268 197.07421875 157.18359375 C198.43757244 157.1630174 199.80091985 157.14202075 201.16426086 157.12062073 C204.74971422 157.0654703 208.33522448 157.01603013 211.92077637 156.96777344 C215.5806992 156.91750701 219.24053957 156.86184781 222.90039062 156.80664062 C230.07935721 156.69914506 237.25839245 156.5976811 244.4375 156.5 C244.70630981 155.80984802 244.97511963 155.11969604 245.2520752 154.40863037 C245.60781616 153.50517883 245.96355713 152.60172729 246.33007812 151.67089844 C246.68138794 150.77449646 247.03269775 149.87809448 247.39465332 148.95452881 C250.79201861 140.95821339 257.34323727 136.4398858 264.94012451 132.78677368 C270.57152496 130.71483776 276.24011248 130.3287906 282.17912674 130.02953148 C284.41169524 129.91488071 286.63944503 129.7643531 288.86923218 129.60481262 C295.19736588 129.15821708 301.52877675 128.77413583 307.86230469 128.4128418 C311.76288355 128.18787442 315.65909963 127.92232858 319.55543137 127.63335609 C321.02543725 127.53273729 322.49660173 127.44764216 323.9684639 127.37935448 C333.11133806 126.95404856 338.9564869 125.51046415 345.47322083 118.67378235 C346.44553902 117.59776009 346.44553902 117.59776009 347.4375 116.5 C348.53233069 115.5379957 349.64541382 114.59584669 350.78515625 113.6875 C357.21311442 109.25032859 357.21311442 109.25032859 360 102.625 C360.15817828 100.91776546 360.3029519 99.20925918 360.4375 97.5 C360.52773438 96.55382812 360.61796875 95.60765625 360.7109375 94.6328125 C360.87160426 91.80966804 360.90844755 89.28980355 360.4375 86.5 C358.09571546 83.98238934 358.09571546 83.98238934 356.16015625 82.78515625 C354.03611663 81.20055526 352.75962502 79.48802478 351.25 77.3125 C350.78207031 76.63832031 350.31414062 75.96414062 349.83203125 75.26953125 C345.05422812 65.780841 344.93833336 56.52535671 344.99145508 46.11450195 C344.99997169 43.57095484 344.97111891 41.02965496 344.93945312 38.48632812 C344.88698679 26.53138428 345.86932913 16.23333488 354.5 7.15625 C362.58989348 0.24069589 371.31644623 0.26248935 381.5 0.1875 C382.78583984 0.15849609 384.07167969 0.12949219 385.39648438 0.09960938 C394.58642077 0.0386246 401.29233361 1.4596744 409.1875 6.125 C414.25978946 11.47908332 418.51576492 18.23593289 418.61450195 25.73681641 C418.62733719 26.58845367 418.64017242 27.44009094 418.65339661 28.3175354 C418.66447701 29.69562881 418.66447701 29.69562881 418.67578125 31.1015625 C418.683853 32.05259857 418.69192474 33.00363464 418.70024109 33.98348999 C418.71407578 35.99922873 418.72480069 38.01499084 418.73266602 40.03076172 C418.74981841 43.09258408 418.79370302 46.15330942 418.83789062 49.21484375 C418.84802341 51.17707542 418.85653767 53.13931625 418.86328125 55.1015625 C418.88078934 56.00814606 418.89829742 56.91472961 418.91633606 57.8487854 C418.88893098 66.00361314 416.34670516 72.60618993 411.25 79 C410.74082031 79.6496875 410.23164063 80.299375 409.70703125 80.96875 C408.4375 82.5 408.4375 82.5 407.4375 83.5 C407.42079939 85.21003031 407.47459142 86.92085878 407.55859375 88.62890625 C407.60693359 89.66337891 407.65527344 90.69785156 407.70507812 91.76367188 C407.76115234 92.85228516 407.81722656 93.94089844 407.875 95.0625 C407.92720703 96.15498047 407.97941406 97.24746094 408.03320312 98.37304688 C408.16334148 101.08229076 408.29832054 103.79120794 408.4375 106.5 C409.37021729 106.94025513 409.37021729 106.94025513 410.32177734 107.3894043 C412.81326455 108.69724821 414.22202456 110.19230472 416.0625 112.3125 C416.94808594 113.31216797 416.94808594 113.31216797 417.8515625 114.33203125 C420.68505604 118.20540296 421.67847045 122.00829592 422.11328125 126.73828125 C422.21680908 127.83648193 422.32033691 128.93468262 422.42700195 130.06616211 C422.53359131 131.30245361 422.64018066 132.53874512 422.75 133.8125 C422.86871532 135.15958821 422.98744993 136.50667472 423.10620117 137.85375977 C423.38713503 141.07483597 423.65978981 144.29653619 423.9296875 147.51855469 C424.30423505 151.97097911 424.69598303 156.42166108 425.09375 160.87207031 C425.64983621 167.09559229 426.18732626 173.32050729 426.70924664 179.54698849 C427.00403054 183.05966 427.30500064 186.57150537 427.62271118 190.08218384 C432.17755392 240.66189037 432.17755392 240.66189037 423.3125 258.6875 C422.95929688 259.42355469 422.60609375 260.15960938 422.2421875 260.91796875 C421.97664063 261.44003906 421.71109375 261.96210938 421.4375 262.5 C422.5821875 262.8403125 422.5821875 262.8403125 423.75 263.1875 C427.09904755 264.82308136 428.03303196 266.06685591 429.4375 269.5 C429.30897033 272.71324185 429.02021385 274.69529992 427.125 277.3125 C422.98715299 280.22431826 418.30079868 279.58105498 413.4375 279.5 C413.70653389 280.58849998 413.70653389 280.58849998 413.98100281 281.69898987 C416.29368249 291.34900978 418.00831804 301.05642083 419.64453125 310.83984375 C419.85928384 312.11808612 419.85928384 312.11808612 420.07837486 313.42215157 C420.83287825 317.91518804 421.58244607 322.40901489 422.32788086 326.90356445 C423.09642857 331.53122018 423.88242664 336.15573894 424.67223072 340.77980709 C425.27985888 344.35645089 425.87453474 347.93516135 426.46570396 351.51455879 C426.74991495 353.22136314 427.03899408 354.92736452 427.3331089 356.63249016 C427.74209998 359.01067502 428.1326005 361.39121619 428.51879883 363.77319336 C428.64283585 364.46990646 428.76687286 365.16661957 428.89466858 365.88444519 C429.58851909 370.3214546 429.27314978 373.39830308 427.4375 377.5 C424.87672235 380.06077765 423.00867397 379.81451364 419.5078125 379.9609375 C416.41037624 379.27131962 415.41281225 377.98358256 413.4375 375.5 C412.62358384 372.63685422 412.04963942 369.9921694 411.578125 367.0703125 C411.34128998 365.72345871 411.34128998 365.72345871 411.09967041 364.34939575 C410.52867939 361.06896417 409.98366223 357.78465481 409.4375 354.5 C409.08556828 352.43064465 408.73124005 350.36170771 408.37679291 348.29278183 C406.75445677 338.81898 405.17384569 329.33841826 403.60009766 319.85644531 C403.04383546 316.51097256 402.48392457 313.16611427 401.92406845 309.82124138 C401.38358169 306.58913113 400.84540019 303.35664037 400.30792999 300.12402725 C400.05187581 298.58570589 399.79510326 297.04750391 399.53759003 295.50942612 C399.18123623 293.37890001 398.8279917 291.24788141 398.47558594 289.11669922 C398.27447205 287.90762909 398.07335815 286.69855896 397.8661499 285.45285034 C397.4375 282.5 397.4375 282.5 397.4375 279.5 C372.3575 279.5 347.2775 279.5 321.4375 279.5 C321.1075 284.45 320.7775 289.4 320.4375 294.5 C320.13890518 297.46868107 319.82590298 300.41756742 319.45361328 303.37548828 C319.36075043 304.14017929 319.26788757 304.9048703 319.17221069 305.69273376 C318.87203812 308.15252253 318.56551809 310.6114555 318.2578125 313.0703125 C318.04218777 314.80809053 317.82660219 316.54587343 317.61105347 318.28366089 C317.16209935 321.89264902 316.70932685 325.5011359 316.25439453 329.109375 C315.6730309 333.72677929 315.10663205 338.34589297 314.54359627 342.96556282 C314.10533351 346.54049015 313.65662593 350.11405 313.20501328 353.68731308 C312.99148332 355.39084293 312.78179265 357.09485873 312.57608414 358.79935074 C312.2884555 361.17392263 311.98614398 363.54618829 311.68017578 365.91845703 C311.59902527 366.61562332 311.51787476 367.31278961 311.43426514 368.03108215 C310.83327472 372.52993565 309.71264945 376.22485055 306.4375 379.5 C299.20023764 380.09321823 299.20023764 380.09321823 296.39547729 377.91181946 C293.85886651 374.78724429 293.59125847 372.45553687 293.00439453 368.48510742 C291.98618097 362.25045425 290.69444947 356.16336144 289.09326172 350.05200195 C288.87800402 349.22935443 288.66274632 348.40670691 288.44096565 347.55913067 C287.75391056 344.95104987 287.0605997 342.34467831 286.3671875 339.73828125 C285.88008936 337.88996764 285.39353778 336.04150992 284.90750122 334.19291687 C283.64035429 329.37851383 282.36675662 324.56584307 281.09143066 319.75360107 C279.0421065 312.01572429 277.00339634 304.27504203 274.96356583 296.53465843 C274.25351337 293.843704 273.54103976 291.15340032 272.82809448 288.46321106 C272.39301442 286.81703514 271.95796437 285.17085128 271.52294922 283.5246582 C271.32554138 282.78230927 271.12813354 282.03996033 270.92474365 281.27511597 C267.70269912 269.06022346 266.39740335 257.07983026 272.4375 245.5 C277.87994397 236.58905546 285.09411358 231.08245476 295.09448242 228.21386719 C302.02837686 226.733205 309.10684544 226.20353536 316.15966797 225.56469727 C318.93186926 225.31301121 321.70219255 225.04547036 324.47265625 224.77539062 C326.26293268 224.60583745 328.05329492 224.43718743 329.84375 224.26953125 C330.65759155 224.1914473 331.47143311 224.11336334 332.30993652 224.03291321 C338.08830543 223.51655477 343.58131915 223.5 349.4375 223.5 C350.0975 213.93 350.7575 204.36 351.4375 194.5 C347.8075 196.48 344.1775 198.46 340.4375 200.5 C337.0353294 201.35054265 334.6511518 201.62370849 331.21099854 201.62025452 C330.15373062 201.62162918 329.09646271 201.62300385 328.00715637 201.62442017 C326.85269516 201.62082489 325.69823395 201.61722961 324.50878906 201.61352539 C323.28900864 201.61367142 322.06922821 201.61381744 320.81248474 201.6139679 C317.47189478 201.6133908 314.1313667 201.60837708 310.7907877 201.60139394 C307.29808802 201.59514071 303.80538751 201.59455504 300.31268311 201.59336853 C293.70064728 201.59026103 287.088628 201.58205545 280.47659945 201.57201904 C272.94823626 201.56083988 265.41987228 201.55534291 257.89150286 201.55032361 C242.40682566 201.53987237 226.92216496 201.52228415 211.4375 201.5 C211.45131192 218.34644246 211.49356724 235.19254179 211.56959057 252.03881264 C211.60422885 259.86103044 211.62959455 267.68307224 211.63305664 275.50537109 C211.63609818 282.32412057 211.65661379 289.14255648 211.69802457 295.96118486 C211.71933955 299.57096718 211.73196323 303.1803039 211.72365379 306.79014969 C211.71469995 310.82228973 211.74476195 314.85324149 211.77807617 318.88525391 C211.76513771 320.67629044 211.76513771 320.67629044 211.75193787 322.50350952 C211.75379264 329.33146766 211.75379264 329.33146766 214.80952454 335.21957397 C217.75768686 337.77784218 219.42744926 338.48069585 223.25 339.125 C224.46558594 339.34800781 225.68117188 339.57101562 226.93359375 339.80078125 C230.4200038 340.36018902 233.91475232 340.85581123 237.41015625 341.35546875 C238.46420654 341.5138623 239.51825684 341.67225586 240.60424805 341.83544922 C242.7027307 342.14748294 244.80458811 342.4377917 246.90942383 342.70361328 C254.96511601 343.89193151 260.51489599 346.57275086 265.4375 353.1875 C267.1156343 358.74631986 267.62811521 364.31973449 265.55859375 369.84765625 C262.87359063 374.58850335 259.5824818 377.53406327 254.4375 379.5 C250.29158365 380.081393 246.18499922 380.04674424 242.00390625 380.01757812 C240.1465535 380.02809204 240.1465535 380.02809204 238.25167847 380.03881836 C234.87121854 380.05336416 231.49174341 380.05001609 228.11133957 380.03730202 C224.56452923 380.02713532 221.01775936 380.03657784 217.47094727 380.04284668 C211.51603694 380.05011247 205.56132542 380.04056364 199.60644531 380.02148438 C192.73359399 379.99971747 185.8612174 380.00676962 178.98837757 380.02879 C173.074759 380.04697466 167.16128289 380.04948743 161.24764538 380.03903532 C157.72126172 380.03281713 154.1951008 380.03191821 150.66873169 380.04518127 C146.73599976 380.058941 142.80379442 380.03983996 138.87109375 380.01757812 C137.71036346 380.02567505 136.54963318 380.03377197 135.35372925 380.04211426 C127.92867215 379.96431769 123.1102535 379.12432159 117.66015625 373.74609375 C114.05901456 368.13219274 113.39527236 363.07783295 114.4375 356.5 C116.26487584 350.77063928 120.35067217 347.35552343 125.4375 344.5 C128.12708234 343.60319056 130.7967463 343.18202679 133.6015625 342.8046875 C134.35666107 342.68570099 135.11175964 342.56671448 135.88973999 342.44412231 C138.2783216 342.06978015 140.66959099 341.72050282 143.0625 341.375 C145.46191049 341.01947818 147.86006171 340.65833042 150.25668335 340.28445435 C151.74082361 340.0537636 153.22668854 339.83382292 154.71426392 339.62643433 C159.8464723 338.84072959 163.50938139 337.61119025 167.04969501 333.73472977 C168.7595814 330.98136452 168.82065129 329.31105311 168.83622742 326.0836792 C168.84876556 324.98434052 168.86130371 323.88500183 168.8742218 322.75234985 C168.87278671 321.55113495 168.87135162 320.34992004 168.86987305 319.11230469 C168.8800647 317.84375641 168.89025635 316.57520813 168.90075684 315.26821899 C168.92833841 311.79333729 168.93761284 308.31861923 168.94361091 304.84364223 C168.95299163 301.21073863 168.97919474 297.57795741 169.00361633 293.94512939 C169.04729342 287.06750602 169.0758329 280.18990637 169.09893972 273.31218648 C169.12598495 265.48145895 169.16989684 257.65085445 169.21522844 249.82021475 C169.308092 233.71353886 169.37976483 217.60684092 169.4375 201.5 C168.84888498 201.50368717 168.26026997 201.50737434 167.65381813 201.51117325 C153.29662681 201.59971359 138.93945996 201.66580135 124.58205605 201.70724869 C117.63875109 201.72782783 110.69562897 201.75585866 103.75244141 201.80175781 C97.04806387 201.84605694 90.34391522 201.86915841 83.63938522 201.87950897 C81.08540234 201.88688242 78.53142947 201.90128095 75.97752762 201.92292023 C72.39185655 201.95208508 68.80696258 201.95595037 65.22119141 201.95410156 C64.1724585 201.96848267 63.12372559 201.98286377 62.04321289 201.99768066 C52.8706124 201.94672333 44.60718895 199.39507758 37.4375 193.5 C36.18295887 191.97545353 34.95958327 190.42493871 33.76171875 188.85546875 C32.82525513 187.63380005 32.82525513 187.63380005 31.86987305 186.38745117 C31.39718994 185.76459229 30.92450684 185.1417334 30.4375 184.5 C30.49808594 185.43271729 30.55867188 186.36543457 30.62109375 187.32641602 C30.84651449 190.81328465 31.06991868 194.30027071 31.29199219 197.78735352 C31.38819915 199.29163655 31.48519103 200.79586961 31.58300781 202.30004883 C31.72411156 204.47203863 31.86231697 206.64419724 32 208.81640625 C32.12568359 210.77235718 32.12568359 210.77235718 32.25390625 212.76782227 C32.43024506 216.35251822 32.46999183 219.9116836 32.4375 223.5 C33.04807251 223.49107224 33.65864502 223.48214447 34.28771973 223.47294617 C40.25093516 223.42374272 46.09732311 223.70020117 52.03125 224.26953125 C53.33950745 224.39203499 53.33950745 224.39203499 54.67419434 224.51701355 C56.50292693 224.69020882 58.33141896 224.86596189 60.15966797 225.04418945 C62.92976482 225.31175286 65.70102046 225.56340094 68.47265625 225.81445312 C83.15754992 227.19731882 96.27266936 228.73474651 106.25 240.75 C113.15813137 250.43744934 114.69175311 259.76938343 113.4375 271.5 C112.04735369 279.51157124 109.80659221 287.34529053 107.6875 295.1875 C107.09879272 297.42394787 106.51182361 299.66085395 105.92651367 301.89819336 C104.41960373 307.63776662 102.88924124 313.37076212 101.34979248 319.10168457 C100.45527977 322.43376986 99.56492423 325.76693397 98.67626953 329.10058594 C98.25098465 330.6959745 98.25098465 330.6959745 97.81710815 332.32359314 C97.25907632 334.4174679 96.70107207 336.51135001 96.14309692 338.60523987 C94.84436986 343.47506464 93.54027285 348.34327739 92.22167969 353.20776367 C91.98130478 354.09863678 91.74092987 354.98950989 91.49327087 355.90737915 C91.05206595 357.54179047 90.60844632 359.17555323 90.16163635 360.80844116 C88.85702158 365.65292459 87.83473446 370.48837525 86.98722839 375.43455505 C86.4375 377.5 86.4375 377.5 84.4375 379.5 C77.54030787 380.05622517 77.54030787 380.05622517 74.39916992 378.47192383 C71.5275542 375.58529779 71.43080068 372.46843733 70.98046875 368.5859375 C70.86656296 367.72874115 70.75265717 366.8715448 70.63529968 365.9883728 C70.37238602 363.98835981 70.11817505 361.98719219 69.87054443 359.98522949 C69.38633564 356.08821881 68.87536762 352.19497815 68.36181641 348.30175781 C67.3410185 340.5327233 66.34936332 332.76017485 65.3659668 324.98632812 C64.84895826 320.89977815 64.32637219 316.81396182 63.80242634 312.72829628 C63.39577144 309.551 62.99255509 306.37327437 62.59032249 303.1954155 C62.39893721 301.68745279 62.20637286 300.17963921 62.01256752 298.67198563 C61.74348413 296.57554195 61.47918651 294.47854673 61.21606445 292.38134766 C61.06522903 291.19368805 60.91439362 290.00602844 60.75898743 288.78237915 C60.4375 285.5 60.4375 285.5 60.4375 279.5 C35.3575 279.5 10.2775 279.5 -15.5625 279.5 C-16.2225 284.78 -16.8825 290.06 -17.5625 295.5 C-18.00307635 298.44314969 -18.45294843 301.37312155 -18.95117188 304.30541992 C-19.07504776 305.05074982 -19.19892365 305.79607971 -19.32655334 306.56399536 C-19.72468855 308.95340902 -20.12764807 311.34197293 -20.53125 313.73046875 C-20.81519427 315.42195986 -21.09900506 317.11347338 -21.38269043 318.80500793 C-21.97203721 322.31384278 -22.56400249 325.82222358 -23.15771484 329.33032227 C-23.91702013 333.819075 -24.66799644 338.30917842 -25.41689301 342.79967785 C-25.99808561 346.27732347 -26.58442965 349.75408582 -27.17225647 353.23061562 C-27.45151423 354.88687685 -27.72899278 356.54343913 -28.00462341 358.20030785 C-28.38900053 360.5071215 -28.78050842 362.81261657 -29.17382812 365.11791992 C-29.28505508 365.79481369 -29.39628204 366.47170746 -29.51087952 367.16911316 C-30.14324315 370.82542539 -30.87418459 374.18134242 -32.5625 377.5 C-36.2830836 379.98038907 -38.16046571 379.96337203 -42.5625 379.5 C-45 378.125 -45 378.125 -46.5625 375.5 C-47.27976016 365.60119935 -45.19222678 355.9389766 -43.53515625 346.21875 C-43.22305201 344.35463598 -42.91157431 342.49041695 -42.60069275 340.62609863 C-41.95076508 336.73880883 -41.29551436 332.85246917 -40.63598633 328.96679688 C-39.78970318 323.98011815 -38.95347668 318.99181976 -38.12075138 314.00286102 C-37.47924469 310.16265951 -36.83421637 306.32305682 -36.18792534 302.48365784 C-35.87823828 300.64331171 -35.56925188 298.80284754 -35.26097298 296.96226501 C-34.83104217 294.40069819 -34.3967909 291.83990333 -33.96118164 289.27929688 C-33.77020905 288.13545532 -33.77020905 288.13545532 -33.57537842 286.96850586 C-32.6770967 281.72919341 -32.6770967 281.72919341 -31.5625 279.5 C-33.356875 279.5928125 -33.356875 279.5928125 -35.1875 279.6875 C-39.3065472 279.69481625 -42.04200587 278.73250847 -45.5625 276.5 C-47.10836876 273.40826248 -46.85609521 270.90570448 -46.5625 267.5 C-44.34386971 264.59282927 -43.04305071 263.66018357 -39.5625 262.5 C-39.82804687 262.00113281 -40.09359375 261.50226563 -40.3671875 260.98828125 C-43.64382257 254.3273844 -44.73685082 247.83274565 -45.5625 240.5 C-45.64459213 239.78353302 -45.72668427 239.06706604 -45.81126404 238.32888794 C-48.26021492 215.6908886 -45.76129592 192.85774327 -43.89770508 170.26251221 C-43.61543872 166.80474933 -43.34450931 163.34613555 -43.07367134 159.88746166 C-42.80865342 156.51626649 -42.53791215 153.14555026 -42.26534653 149.77495766 C-42.13717036 148.18487196 -42.01039122 146.59467291 -41.88513565 145.00435448 C-39.79773837 118.67355094 -39.79773837 118.67355094 -33.5625 111.5 C-32.56347656 110.82324219 -31.56445312 110.14648438 -30.53515625 109.44921875 C-26.15304057 105.87970768 -25.93322568 101.02232436 -25.25 95.6875 C-25.07533203 94.72779297 -24.90066406 93.76808594 -24.72070312 92.77929688 C-23.92907948 87.356734 -23.92907948 87.356734 -25.90869141 82.43994141 C-27.14045026 81.14597589 -28.38848137 79.86736162 -29.64990234 78.60229492 C-37.88256716 69.55308931 -37.31410897 57.66237487 -37.15942383 46.19970703 C-37.12497581 43.37301531 -37.13884832 40.54943775 -37.15820312 37.72265625 C-37.15086334 27.31632634 -36.86857888 18.72407035 -30.7734375 9.9140625 C-30.16757812 9.32367188 -29.56171875 8.73328125 -28.9375 8.125 C-28.34710938 7.51914063 -27.75671875 6.91328125 -27.1484375 6.2890625 C-18.58333068 0.36335416 -10.1923179 -0.12525122 0 0 Z M-18.5625 21.5 C-21.01536296 25.17929445 -20.79478878 26.97377907 -20.7578125 31.35546875 C-20.7549826 32.01710526 -20.75215271 32.67874176 -20.74923706 33.36042786 C-20.73805918 35.46963737 -20.71295981 37.57841925 -20.6875 39.6875 C-20.67746707 41.11913448 -20.66834176 42.55077564 -20.66015625 43.98242188 C-20.63812795 47.48841977 -20.60361485 50.99416813 -20.5625 54.5 C-17.38015895 52.74545615 -17.38015895 52.74545615 -14.5625 50.5 C-14.10191477 47.27134311 -13.72567281 44.03707687 -13.35546875 40.796875 C-12.43399446 36.96572081 -11.38092889 35.23817212 -8.5625 32.5 C-5.53125 30.875 -5.53125 30.875 -2.0625 29.5 C-1.45390137 29.25362793 -0.84530273 29.00725586 -0.21826172 28.75341797 C1.0387698 28.24506203 2.29807958 27.74230442 3.55957031 27.24511719 C6.49479109 26.08049241 9.40157623 24.84883256 12.3125 23.625 C14.0205253 22.91592422 15.72873488 22.20729106 17.4375 21.5 C15.16334713 18.12911733 15.16334713 18.12911733 11.4375 16.5 C7.50521661 16.19024789 3.5680318 16.17617799 -0.375 16.125 C-1.99631836 16.06892578 -1.99631836 16.06892578 -3.65039062 16.01171875 C-10.47087578 15.93635427 -13.96033559 16.31210558 -18.5625 21.5 Z M364.4375 20.5 C366.67593458 22.73843458 368.33403747 23.38474023 371.26953125 24.5234375 C372.23310547 24.905 373.19667969 25.2865625 374.18945312 25.6796875 C376.21700444 26.47155821 378.24564031 27.26065797 380.27539062 28.046875 C391.7283813 32.59449821 391.7283813 32.59449821 394.6875 37.625 C395.59573528 41.10656858 395.63352381 44.40895263 395.60546875 48 C396.90394307 51.90151908 400.03242051 53.41988645 403.4375 55.5 C403.49590224 51.31255925 403.53123166 47.12522435 403.5625 42.9375 C403.57925781 41.75607422 403.59601563 40.57464844 403.61328125 39.35742188 C403.85624363 28.69277384 403.85624363 28.69277384 398.9375 19.625 C393.95515431 15.39000616 388.99847595 16.24292426 382.6875 16.1875 C381.05941406 16.14399414 381.05941406 16.14399414 379.3984375 16.09960938 C373.09672258 16.04953462 369.23101707 16.25120078 364.4375 20.5 Z M361.4375 37.5 C361.29021542 41.12456014 361.20277774 44.74833521 361.125 48.375 C361.08310547 49.38820313 361.04121094 50.40140625 360.99804688 51.4453125 C360.87077972 59.38678319 362.40692734 66.32319747 368.08618164 72.20849609 C372.44416307 75.8660753 377.81861861 77.32012727 383.4375 77.5 C388.21493649 76.64155438 392.94564519 74.99185481 396.4375 71.5 C396.4375 70.84 396.4375 70.18 396.4375 69.5 C394.89890132 68.33430596 393.30468037 67.2414716 391.6875 66.1875 C387.24412521 63.17078162 383.87504188 60.37508376 381.4375 55.5 C381.2099985 53.62943209 381.02787189 51.75314042 380.875 49.875 C380.74931641 48.37066406 380.74931641 48.37066406 380.62109375 46.8359375 C380.56050781 46.06507813 380.49992187 45.29421875 380.4375 44.5 C377.45939259 43.33061634 374.47984409 42.16495037 371.5 41 C370.64986328 40.66613281 369.79972656 40.33226562 368.92382812 39.98828125 C368.11494141 39.67246094 367.30605469 39.35664063 366.47265625 39.03125 C365.7237915 38.73798828 364.97492676 38.44472656 364.20336914 38.14257812 C362.59407189 37.44300805 362.59407189 37.44300805 361.4375 37.5 Z M15.40234375 39.03125 C14.59345703 39.34707031 13.78457031 39.66289062 12.95117188 39.98828125 C11.6759668 40.48908203 11.6759668 40.48908203 10.375 41 C9.52099609 41.33386719 8.66699219 41.66773438 7.78710938 42.01171875 C5.66998068 42.83964617 3.55347903 43.66913967 1.4375 44.5 C1.40011719 45.22445312 1.36273438 45.94890625 1.32421875 46.6953125 C1.25847656 47.66210938 1.19273438 48.62890625 1.125 49.625 C1.06699219 50.57632813 1.00898437 51.52765625 0.94921875 52.5078125 C0.10802144 57.4265693 -1.39082263 60.53179772 -5.26171875 63.73046875 C-6.24785156 64.37628906 -7.23398437 65.02210938 -8.25 65.6875 C-11.20131364 67.56307332 -11.20131364 67.56307332 -13.5625 69.5 C-13.5625 70.49 -13.5625 71.48 -13.5625 72.5 C-8.13732205 75.93225544 -3.7489844 78.25330054 2.890625 77.05859375 C9.71103205 75.27181047 14.11228458 72.78737353 18.25 66.9375 C20.20909328 62.91620326 20.55991451 59.53461206 20.53515625 55.078125 C20.53193359 54.05332031 20.52871094 53.02851563 20.52539062 51.97265625 C20.51701172 50.90917969 20.50863281 49.84570312 20.5 48.75 C20.49548828 47.67105469 20.49097656 46.59210938 20.48632812 45.48046875 C20.47455727 42.82025617 20.45811399 40.16015635 20.4375 37.5 C18.65239963 37.5 17.04681246 38.38726225 15.40234375 39.03125 Z M-8.5625 92.5 C-8.8925 94.81 -9.2225 97.12 -9.5625 99.5 C-4.6125 99.5 0.3375 99.5 5.4375 99.5 C5.1075 97.19 4.7775 94.88 4.4375 92.5 C0.1475 92.5 -4.1425 92.5 -8.5625 92.5 Z M377.4375 92.5 C377.1075 94.81 376.7775 97.12 376.4375 99.5 C381.3875 99.5 386.3375 99.5 391.4375 99.5 C391.4375 97.52 391.4375 95.54 391.4375 93.5 C390.32623341 92.16098208 390.32623341 92.16098208 387.49609375 92.40234375 C386.30113281 92.41394531 385.10617187 92.42554688 383.875 92.4375 C382.67746094 92.44652344 381.47992188 92.45554687 380.24609375 92.46484375 C378.85583984 92.48224609 378.85583984 92.48224609 377.4375 92.5 Z M-22.5625 123.5 C-24.25867745 128.38921379 -24.97479237 133.14976702 -25.34033203 138.28369141 C-25.39914551 139.02770706 -25.45795898 139.77172272 -25.51855469 140.5382843 C-25.70943824 142.97556204 -25.89002426 145.41348005 -26.0703125 147.8515625 C-26.20139812 149.55598323 -26.33307043 151.26035892 -26.46530151 152.96469116 C-26.74019908 156.5265985 -27.01042407 160.08881671 -27.27685547 163.65136719 C-27.61800277 168.21253101 -27.96709684 172.77303963 -28.31921577 177.3333683 C-28.65557006 181.69339758 -28.98814879 186.05371228 -29.3203125 190.4140625 C-29.38371952 191.24274464 -29.44712654 192.07142677 -29.51245499 192.92522049 C-29.69152399 195.27502925 -29.86792966 197.625022 -30.04345703 199.97509766 C-30.12290054 201.01164742 -30.12290054 201.01164742 -30.20394897 202.06913757 C-30.46127028 205.55443649 -30.61835737 209.00515705 -30.5625 212.5 C-21.2814637 214.75080781 -11.97550736 216.58312027 -2.5625 218.1875 C-1.27988281 218.41244141 0.00273438 218.63738281 1.32421875 218.86914062 C3.17466797 219.1872168 3.17466797 219.1872168 5.0625 219.51171875 C6.16851562 219.70209717 7.27453125 219.89247559 8.4140625 220.08862305 C11.14499759 220.46020134 13.68887544 220.53057939 16.4375 220.5 C16.14580776 213.02089935 15.80163272 205.54576656 15.39101601 198.07227802 C15.20194674 194.60124115 15.03080727 191.13126414 14.90087891 187.6574707 C14.75055695 183.65965846 14.52188431 179.66964442 14.2890625 175.67578125 C14.25318024 174.43290848 14.21729797 173.19003571 14.18032837 171.90950012 C13.94615844 168.48282144 13.68205685 165.7036892 12.4375 162.5 C9.92275002 160.48187147 7.68582581 159.40941253 4.65756226 158.32585144 C2.4375 157.5 2.4375 157.5 1.4375 155.5 C0.99128486 149.36454183 0.99128486 149.36454183 2.4375 146.5625 C5.72043255 144.81844208 8.86438583 144.87487408 12.4375 145.5 C15.01816124 146.75217095 17.39145722 148.23213907 19.83692932 149.73065186 C38.04496479 160.51135981 57.14249853 158.90945054 77.62976074 158.32397461 C82.47062049 158.19921124 87.31227874 158.14599363 92.15429688 158.0859375 C101.58406821 157.95884003 111.01038388 157.75521053 120.4375 157.5 C117.84727135 153.03536088 115.69960674 149.44978703 110.46562195 147.9258728 C103.06119313 146.43318393 95.67293074 145.85927438 88.14453125 145.3515625 C86.78546186 145.25294221 85.42646903 145.15326162 84.06755066 145.05258179 C78.34787958 144.62971549 72.627561 144.21766095 66.90551758 143.828125 C63.38500305 143.58775503 59.86606144 143.3304445 56.3475399 143.06254196 C54.37489615 142.91722029 52.40090948 142.79050898 50.42695618 142.66421509 C40.91710825 141.9296494 35.67755915 139.92895254 28.6875 133.3125 C15.34341693 120.31965953 15.34341693 120.31965953 -1.625 114.1875 C-9.53360119 114.81516676 -17.17283368 117.55754739 -22.5625 123.5 Z M361.4375 126.5 C359.61869961 128.09511117 357.79676129 129.68633404 355.96948242 131.27172852 C354.76816499 132.31594447 353.57267303 133.36691258 352.3840332 134.42553711 C351.82804443 134.91159424 351.27205566 135.39765137 350.69921875 135.8984375 C350.21412842 136.32817871 349.72903809 136.75791992 349.22924805 137.20068359 C344.77334849 140.43195454 340.68364767 141.8749143 335.22363281 142.26782227 C334.01507629 142.36124405 332.80651978 142.45466583 331.56134033 142.55091858 C329.62058624 142.68233498 329.62058624 142.68233498 327.640625 142.81640625 C326.2830051 142.91815166 324.92548204 143.02119656 323.5680542 143.12547302 C320.00194735 143.39674651 316.43498423 143.6540244 312.86755371 143.90722656 C307.17329289 144.31279797 301.48035438 144.73570606 295.78792572 145.16615105 C293.81553012 145.31269834 291.84248923 145.45047745 289.8694458 145.58802795 C275.66804835 146.23740958 275.66804835 146.23740958 263.71484375 152.96484375 C262.20565263 154.58937614 262.20565263 154.58937614 261.4375 157.5 C271.80960676 157.78142818 282.1807667 157.99292826 292.55595207 158.12174606 C297.37691515 158.18366083 302.19521708 158.26721708 307.01464844 158.40527344 C328.69267242 159.01044745 346.37583217 159.257203 365.58251953 148.09863281 C369.88986399 145.59873974 372.49872425 144.68606545 377.4375 145.5 C380.4375 147.5 380.4375 147.5 381.3125 150.3125 C381.46919918 154.30832916 381.06870506 155.48185302 378.4375 158.5 C376.93314877 159.11791262 375.42497967 159.72656545 373.91430664 160.32885742 C370.83766717 162.01187375 369.66908461 162.8455211 368.48605347 166.18887329 C368.00665661 169.69882074 367.80052063 173.13502426 367.68359375 176.67578125 C367.56951927 178.59622505 367.56951927 178.59622505 367.45314026 180.5554657 C367.25224099 183.94581482 367.10328611 187.33650658 366.965271 190.72991943 C366.81497383 194.19732287 366.61533776 197.66185178 366.41992188 201.12695312 C366.04430465 207.91597254 365.72353099 214.70663242 365.4375 221.5 C366.63246094 221.2834375 367.82742188 221.066875 369.05859375 220.84375 C370.66399257 220.56210108 372.26946537 220.28087367 373.875 220 C374.65810547 219.85691406 375.44121094 219.71382813 376.24804688 219.56640625 C381.58863503 218.64334163 387.01789026 217.87521538 392.4375 218.5 C394.5 220.125 394.5 220.125 395.4375 222.5 C395.85615457 226.60281481 395.76329101 228.01131349 393.4375 231.5 C391.35986328 232.25195312 391.35986328 232.25195312 388.7578125 232.78125 C387.29396118 233.08204468 387.29396118 233.08204468 385.80053711 233.38891602 C384.19770874 233.69140259 384.19770874 233.69140259 382.5625 234 C381.44045166 234.21648193 380.31840332 234.43296387 379.16235352 234.65600586 C365.53006773 237.17931449 351.79031457 238.45210467 337.99682617 239.72528076 C332.6071239 240.22305177 327.21836068 240.72953272 321.83035278 241.24533081 C319.17211048 241.49556524 316.51286534 241.73167404 313.85327148 241.96704102 C312.19769534 242.12324116 310.54217497 242.28003398 308.88671875 242.4375 C307.76182037 242.53121132 307.76182037 242.53121132 306.61419678 242.6268158 C299.62567106 243.31781843 293.51677415 245.42072585 288.4375 250.5 C284.07662187 256.51402147 283.85701481 262.2760968 284.4375 269.5 C285.21869331 273.79374597 286.33253452 277.96472062 287.5 282.16796875 C287.81074463 283.32879471 288.12148926 284.48962067 288.44165039 285.68562317 C289.42745606 289.35651487 290.43212387 293.02192562 291.4375 296.6875 C292.11323709 299.19041593 292.78772877 301.69366845 293.4609375 304.19726562 C295.10541274 310.30214254 296.76536355 316.40264506 298.4375 322.5 C299.0975 322.17 299.7575 321.84 300.4375 321.5 C300.97473362 318.72913634 301.38603231 316.02733481 301.7265625 313.23046875 C301.83471283 312.39792068 301.94286316 311.56537262 302.05429077 310.70759583 C302.28199783 308.94192085 302.50530996 307.17567447 302.72460938 305.40893555 C303.05992602 302.70823136 303.40760599 300.00935659 303.7578125 297.31054688 C303.97729019 295.59644718 304.19606314 293.88225708 304.4140625 292.16796875 C304.51715729 291.36054733 304.62025208 290.55312592 304.72647095 289.72123718 C305.15254346 286.27593304 305.4375 282.97754652 305.4375 279.5 C304.79941406 279.30664062 304.16132813 279.11328125 303.50390625 278.9140625 C302.67761719 278.65367187 301.85132813 278.39328125 301 278.125 C300.17628906 277.86976563 299.35257812 277.61453125 298.50390625 277.3515625 C296.4375 276.5 296.4375 276.5 295.4375 274.5 C294.97327621 268.11692294 294.97327621 268.11692294 296.7156496 265.80142307 C299.72988744 263.52317714 303.4620974 264.07948862 307.09643555 264.09936523 C307.98135178 264.09238617 308.86626801 264.0854071 309.77799988 264.07821655 C312.71016886 264.05818556 315.6419873 264.05873976 318.57421875 264.05859375 C320.61343842 264.04682336 322.65264947 264.03345998 324.69184875 264.01856995 C330.06952242 263.98231769 335.44711975 263.96216817 340.82489014 263.94702148 C349.41488623 263.92223761 358.0047133 263.8823802 366.59455299 263.82512093 C369.59014996 263.80884674 372.58558689 263.80501828 375.58122253 263.80210876 C377.43134837 263.79232526 379.28147174 263.78206081 381.1315918 263.77124023 C381.9583844 263.77379318 382.785177 263.77634613 383.63702393 263.77897644 C391.49004954 263.7102995 398.11561671 262.5287708 404.4375 257.5 C414.59238503 246.49887455 413.77390336 226.5887219 413.31939697 212.3203125 C412.77103961 199.85396959 411.63469789 187.42173193 410.51513672 174.99633789 C410.15728677 170.95223806 409.8259262 166.90614846 409.49525928 162.85974884 C409.09686922 157.99937805 408.68393709 153.14027719 408.26953125 148.28125 C408.19280497 147.36827652 408.11607868 146.45530304 408.03702736 145.5146637 C407.8176196 142.93672641 407.58789908 140.35992835 407.35473633 137.78320312 C407.29175858 137.02904114 407.22878082 136.27487915 407.16389465 135.49786377 C406.62497633 129.73706382 405.99960135 125.14020641 401.9375 120.875 C386.86400748 109.48695797 374.08837377 115.3076328 361.4375 126.5 Z M185.4375 201.5 C185.43385437 203.13149994 185.43020874 204.76299988 185.42645264 206.44393921 C185.38947997 221.83404054 185.3319178 237.22392173 185.25359726 252.61386681 C185.21385844 260.5256215 185.18143987 268.43727748 185.16650391 276.34912109 C185.15346053 283.24844916 185.12642778 290.14755953 185.08288693 297.04676497 C185.06033207 300.6968532 185.0445857 304.34667353 185.04561615 307.99683762 C185.04650608 312.08071673 185.01615151 316.16381057 184.98339844 320.24755859 C184.99094398 322.04507568 184.99094398 322.04507568 184.99864197 323.87890625 C184.89540321 332.22252566 183.64980436 339.44839055 178.359375 346.12109375 C177.64265625 346.72050781 176.9259375 347.31992187 176.1875 347.9375 C175.12789062 348.86369141 175.12789062 348.86369141 174.046875 349.80859375 C166.0553284 354.98874297 156.77308286 355.75688326 147.5625 357.125 C145.4251554 357.44834434 143.28823573 357.77414885 141.15182495 358.10360718 C139.22975363 358.39915626 137.30655158 358.68732384 135.38330078 358.97509766 C132.51665203 359.34235101 132.51665203 359.34235101 130.4375 360.5 C130.4375 361.49 130.4375 362.48 130.4375 363.5 C132.85367591 364.70808796 134.36898697 364.62578769 137.06835938 364.62698364 C138.04426025 364.62980347 139.02016113 364.63262329 140.02563477 364.63552856 C141.09998779 364.63350433 142.17434082 364.6314801 143.28125 364.62939453 C144.40974365 364.63114685 145.5382373 364.63289917 146.70092773 364.63470459 C150.44646728 364.6391206 154.19195994 364.63618597 157.9375 364.6328125 C160.53059905 364.63348561 163.12369804 364.6344557 165.71679688 364.63571167 C171.15755877 364.6371883 176.59830291 364.63512999 182.0390625 364.63037109 C188.3340641 364.62492868 194.62903331 364.62669142 200.92403412 364.6321975 C206.97353057 364.63727756 213.02301114 364.63674586 219.07250977 364.63381577 C221.64982101 364.63314675 224.22713307 364.63397403 226.80444336 364.63629532 C230.40090146 364.63882333 233.99729661 364.63497909 237.59375 364.62939453 C239.20527954 364.63243088 239.20527954 364.63243088 240.84936523 364.63552856 C241.82526611 364.63270874 242.80116699 364.62988892 243.80664062 364.62698364 C244.65762329 364.62660662 245.50860596 364.62622959 246.38537598 364.62584114 C248.50299202 364.63043296 248.50299202 364.63043296 250.4375 363.5 C250.4375 362.51 250.4375 361.52 250.4375 360.5 C245.52694451 359.13767691 240.66927712 358.18471217 235.62890625 357.421875 C234.38689453 357.22980469 233.14488281 357.03773438 231.86523438 356.83984375 C229.29451701 356.4475463 226.72152616 356.06986025 224.14648438 355.70703125 C214.85674228 354.23338631 208.01634582 351.61125563 201.5625 344.625 C196.2208296 336.76960235 195.99411182 329.72778668 196.00512695 320.47460938 C195.98983948 318.54165009 195.98983948 318.54165009 195.97424316 316.56964111 C195.94679942 313.0578073 195.93740599 309.5461354 195.93138909 306.0342083 C195.9219723 302.35595225 195.89576639 298.67781559 195.87138367 294.99963379 C195.8278055 288.04422805 195.79920536 281.0888456 195.77606028 274.13334513 C195.74896189 266.21062947 195.70505336 258.28803443 195.65977156 250.36540508 C195.56704973 234.07699571 195.49590838 217.78856898 195.4375 201.5 C192.1375 201.5 188.8375 201.5 185.4375 201.5 Z M-29.5625 229.5 C-29.94782673 239.36864582 -29.89686716 248.97479641 -23.26953125 256.84375 C-16.4401576 263.46996151 -8.48132961 263.64646936 0.51635742 263.65771484 C1.40974319 263.66279556 2.30312897 263.66787628 3.22358704 263.67311096 C5.15511802 263.68377616 7.08666106 263.69241129 9.01820946 263.69923019 C12.07342802 263.71105539 15.12850754 263.73051395 18.18367004 263.75234985 C26.8671103 263.8138704 35.55053245 263.86812746 44.23413086 263.90136719 C49.55147499 263.92226673 54.86855895 263.95752106 60.18575478 264.00212479 C62.21236431 264.01631086 64.23901979 264.02501308 66.2656765 264.02817917 C69.0930056 264.03306708 71.91963782 264.05616625 74.74682617 264.08349609 C75.58688202 264.08048996 76.42693787 264.07748383 77.29244995 264.0743866 C82.98632248 264.15646265 82.98632248 264.15646265 85.15237904 265.80574989 C87.28146125 268.61264346 86.80008405 271.11588223 86.4375 274.5 C84.27685041 278.185814 80.3395519 278.43088289 76.4375 279.5 C77.45360317 289.85229821 78.59099468 300.18506729 79.9375 310.5 C80.05585205 311.44891113 80.1742041 312.39782227 80.29614258 313.37548828 C80.41497803 314.26220215 80.53381348 315.14891602 80.65625 316.0625 C80.8099707 317.24005859 80.8099707 317.24005859 80.96679688 318.44140625 C81.37621755 320.79296356 81.37621755 320.79296356 83.4375 323.5 C85.45047538 316.01601044 87.44192328 308.52652572 89.41894531 301.03295898 C90.09310859 298.48771791 90.77207665 295.9437442 91.45605469 293.40112305 C92.44190243 289.73293592 93.41002192 286.0604437 94.375 282.38671875 C94.68123291 281.26230881 94.98746582 280.13789886 95.30297852 278.97941589 C97.4242569 270.80363007 99.23919406 262.27412594 95.9375 254.1875 C92.95469242 249.12608087 88.73608856 245.39211949 83.00302124 243.84158325 C76.31687386 242.71307852 69.67485687 241.98837236 62.9140625 241.4921875 C60.67347379 241.31346931 58.43299926 241.13331511 56.19262695 240.9519043 C55.028815 240.85839691 53.86500305 240.76488953 52.66592407 240.66854858 C28.25542624 238.6799769 4.354485 235.43348904 -19.65290833 230.59199524 C-23.05416708 229.91564519 -26.0768923 229.5 -29.5625 229.5 Z " fill="#000000" transform="translate(64.5625,132.5)"/>
<path d="M0 0 C0.67801757 -0.00438225 1.35603513 -0.00876451 2.05459869 -0.01327956 C4.33757986 -0.0266857 6.62052242 -0.03285053 8.90353394 -0.03897095 C10.53614985 -0.04687066 12.16876402 -0.05513953 13.80137634 -0.06375122 C19.17379077 -0.08999254 24.54621306 -0.10528372 29.91867065 -0.11953735 C31.76778036 -0.12489669 33.61689001 -0.1302742 35.4659996 -0.13566971 C43.15913022 -0.157304 50.85225872 -0.17603971 58.54541206 -0.1872921 C69.5703302 -0.20352327 80.59489543 -0.23667448 91.61968052 -0.29369295 C99.37094951 -0.33241336 107.1221242 -0.35192744 114.87348735 -0.35721266 C119.50279493 -0.36086404 124.13172628 -0.37286197 128.76092911 -0.4053154 C133.11947394 -0.43543207 137.47741566 -0.44169518 141.8360424 -0.42993164 C143.43236351 -0.42971119 145.02871288 -0.43799304 146.62493706 -0.45558548 C161.15267933 -0.60693121 161.15267933 -0.60693121 167.05508232 3.73886681 C172.78667456 9.45735535 173.58984745 16.14827245 173.63449097 23.91268921 C173.63945587 24.57195908 173.64442078 25.23122894 173.64953613 25.91047668 C173.6640772 28.08017035 173.67094681 30.24979086 173.67648315 32.41952515 C173.68072422 33.53766727 173.68072422 33.53766727 173.68505096 34.67839813 C173.70001238 38.62450003 173.7092606 42.57056567 173.71359253 46.51669312 C173.71906748 50.57271968 173.74308338 54.62840893 173.77156448 58.68432999 C173.79028145 61.82094257 173.79540129 64.95747542 173.79692841 68.0941391 C173.79993591 69.58832388 173.80789938 71.0825079 173.82111359 72.57663727 C173.9687732 90.55823339 173.9687732 90.55823339 168.8600769 97.2749939 C162.20600281 102.42998923 156.78317894 103.48629298 148.47335815 103.15390015 C148.50816284 104.02272827 148.54296753 104.8915564 148.5788269 105.78671265 C148.86245222 117.86104766 148.86245222 117.86104766 145.47335815 122.15390015 C142.37693855 124.28698921 140.35172992 125.11571007 136.59835815 125.27890015 C130.7867182 123.18670976 126.73209247 118.87293486 123.12185669 113.94248962 C118.64079009 108.1014288 114.37998385 104.08215812 106.88754272 102.99713135 C99.97364941 102.4533333 93.07139317 102.64026475 86.14523315 102.8062439 C83.58464686 102.81822945 81.02402374 102.82386568 78.46340942 102.82347107 C72.43474336 102.83536543 66.40930044 102.90184193 60.38160634 102.99843746 C48.94650498 103.17930159 37.51047695 103.23068429 26.07416534 103.27939034 C22.33066388 103.30581729 18.58865981 103.36335442 14.84561157 103.42610168 C12.54282207 103.44916512 10.24002679 103.47166128 7.93722534 103.49349976 C6.90532074 103.5189537 5.87341614 103.54440765 4.8102417 103.57063293 C-2.7331579 103.60855324 -8.7323875 102.20689863 -14.69374084 97.41017151 C-20.03060827 89.86465025 -19.34141484 81.47912106 -19.2180481 72.6421814 C-19.21446552 70.9430625 -19.21311473 69.24393757 -19.21388245 67.54481506 C-19.20921016 63.99835561 -19.18451265 60.45281427 -19.14407349 56.90658569 C-19.09298808 52.37048739 -19.08163508 47.83539125 -19.08390903 43.29903889 C-19.08309197 39.7961732 -19.06661906 36.29352471 -19.04490471 32.79073143 C-19.03538995 31.11826403 -19.02945311 29.44577217 -19.02722359 27.77327919 C-19.02069027 25.43529227 -18.99437411 23.09835025 -18.96243286 20.7605896 C-18.9644722 19.73414589 -18.9644722 19.73414589 -18.96655273 18.68696594 C-18.85955472 13.30876831 -17.48331119 9.23258896 -13.7727356 5.2906189 C-13.17589966 4.81237671 -12.57906372 4.33413452 -11.96414185 3.84140015 C-11.36472778 3.35026733 -10.76531372 2.85913452 -10.1477356 2.3531189 C-6.73399129 -0.1722293 -4.2101854 0.01924118 0 0 Z M-2.52664185 17.15390015 C-2.96722341 20.14547266 -2.96722341 20.14547266 -2.86721802 23.7149353 C-2.8676561 24.38822372 -2.86809418 25.06151215 -2.86854553 25.75520325 C-2.8664524 27.98474952 -2.84309804 30.21354746 -2.8196106 32.44296265 C-2.81401647 33.98709706 -2.80974551 35.53123678 -2.80674744 37.07537842 C-2.7952841 41.14273742 -2.76580446 45.20977586 -2.7326355 49.27700806 C-2.70196647 53.42603213 -2.6882489 57.57510793 -2.67312622 61.72421265 C-2.64093589 69.86758905 -2.58972193 78.01070474 -2.52664185 86.15390015 C-0.11044948 87.36199633 1.40901736 87.28121777 4.10853577 87.28520203 C5.085625 87.28921021 6.06271423 87.29321838 7.06941223 87.29734802 C8.14526077 87.29681931 9.22110931 87.29629059 10.32955933 87.29574585 C11.45977509 87.29922028 12.58999084 87.3026947 13.75445557 87.30627441 C16.21589348 87.3136414 18.67733808 87.31898174 21.13878441 87.32256508 C25.0348948 87.32971547 28.93087814 87.34537201 32.82695007 87.36390686 C34.16116232 87.37024454 35.49537462 87.37657016 36.82958698 87.38288403 C37.49785688 87.38604984 38.16612678 87.38921565 38.85464728 87.39247739 C47.92553256 87.43453187 56.99637606 87.46751 66.06735229 87.47982788 C72.83898553 87.4891179 79.6102916 87.5192372 86.3817997 87.56114769 C88.96332716 87.57346457 91.54489943 87.57857771 94.12645531 87.57634926 C97.74137593 87.57399703 101.35538664 87.59615986 104.97018433 87.62387085 C106.03591171 87.61726944 107.1016391 87.61066803 108.19966125 87.60386658 C115.85943506 87.70021495 120.08065912 89.16963198 125.9069519 94.29452515 C126.56824097 94.9906189 127.22953003 95.68671265 127.91085815 96.40390015 C128.59019409 97.1103064 129.26953003 97.81671265 129.9694519 98.54452515 C130.46574097 99.0756189 130.96203003 99.60671265 131.47335815 100.15390015 C133.45239674 97.30873774 133.45239674 97.30873774 134.72335815 94.71640015 C136.90105651 91.52762756 138.86412943 89.49215349 142.47335815 88.15390015 C145.87440153 87.73187287 149.21998494 87.52900026 152.64523315 87.42733765 C155.60772272 87.44338585 155.60772272 87.44338585 157.47335815 85.15390015 C157.7880533 82.26099003 157.7880533 82.26099003 157.74801636 78.82406616 C157.75312729 78.17510376 157.75823822 77.52614136 157.76350403 76.85751343 C157.7774293 74.70751784 157.77644108 72.55784178 157.7741394 70.4078064 C157.77802487 68.91569397 157.78235923 67.42358265 157.78712463 65.93147278 C157.79459324 62.80172137 157.79429108 59.67208275 157.78903198 56.54232788 C157.78323782 52.52931115 157.80016351 48.51675604 157.82337666 44.50381565 C157.83810118 41.42146602 157.83898745 38.33922786 157.83586693 35.25684929 C157.83638084 33.77725244 157.84163162 32.29764945 157.85167885 30.81808662 C157.86400113 28.7494614 157.85727801 26.68173917 157.84567261 24.61312866 C157.84630203 23.4355751 157.84693146 22.25802155 157.84757996 21.04478455 C157.70515681 18.22238036 157.70515681 18.22238036 156.33665752 16.49660873 C153.63733824 14.55145744 151.59415209 14.77918688 148.28634644 14.77967834 C146.34299408 14.76915688 146.34299408 14.76915688 144.36038208 14.75842285 C142.92147673 14.76585083 141.48257292 14.77358199 140.04367065 14.78158569 C138.53087107 14.77915817 137.01807308 14.77543924 135.50527954 14.77052307 C131.39373123 14.76110492 127.28242058 14.77054717 123.17089081 14.7838552 C118.87213599 14.79515748 114.57339309 14.79106314 110.27462769 14.78910828 C103.0550243 14.78822491 95.83551474 14.79931452 88.61593628 14.81771851 C80.26404326 14.83888679 71.91228772 14.84239626 63.56037331 14.83615655 C55.53263149 14.83046563 47.50493819 14.83610534 39.47720337 14.84733009 C36.05780136 14.85197969 32.63842898 14.85284837 29.21902466 14.85074425 C25.19383346 14.84886323 21.16878256 14.8569508 17.14362335 14.87280464 C15.66455923 14.87705407 14.18548089 14.87789363 12.70641327 14.87511444 C10.69105901 14.87190157 8.67569656 14.88218293 6.66036987 14.89320374 C5.53138275 14.89525661 4.40239563 14.89730947 3.23919678 14.89942455 C0.26013321 14.95217485 0.26013321 14.95217485 -2.52664185 17.15390015 Z " fill="#000000" transform="translate(239.52664184570313,-0.153900146484375)"/>
<path d="M0 0 C0.83975876 -0.00860046 1.67951752 -0.01720093 2.54472351 -0.02606201 C3.92172928 -0.03245193 3.92172928 -0.03245193 5.32655334 -0.03897095 C6.78060829 -0.05123718 6.78060829 -0.05123718 8.26403809 -0.06375122 C11.47505575 -0.08858554 14.68602938 -0.10511324 17.89710999 -0.11953735 C18.99262239 -0.12486103 20.0881348 -0.13018471 21.21684456 -0.13566971 C27.01154506 -0.1623884 32.80622407 -0.18177038 38.60096741 -0.19619751 C44.59474111 -0.21287315 50.58796794 -0.25767932 56.58153439 -0.30856895 C61.183987 -0.34216336 65.78630828 -0.35376617 70.38887215 -0.35942459 C72.59894062 -0.36615499 74.80899993 -0.38142312 77.01894951 -0.4053154 C80.1076208 -0.43681165 83.19479597 -0.43702727 86.28358459 -0.42959595 C87.65755402 -0.45420395 87.65755402 -0.45420395 89.0592804 -0.47930908 C95.22479474 -0.41843913 95.22479474 -0.41843913 98.47280884 2.46380615 C100.37889332 6.13431639 99.96204183 8.22170801 98.86976624 12.15390015 C96.97442748 14.73845299 95.98150107 15.1166552 92.86976624 16.15390015 C89.9035975 16.27449994 86.95921463 16.33933818 83.99208069 16.35922241 C83.08456055 16.36912201 82.17704041 16.37902161 81.24201965 16.38922119 C78.23905557 16.42083634 75.23607566 16.44559375 72.23304749 16.4703064 C70.15224799 16.4908759 68.07145267 16.51187238 65.99066162 16.53327942 C60.51131065 16.58850039 55.03192197 16.6379096 49.55250549 16.68612671 C42.97956462 16.74516866 36.40669273 16.81139681 29.8338089 16.8764267 C19.84583678 16.97443654 9.85782061 17.06329243 -0.13023376 17.15390015 C-0.13023376 39.92390015 -0.13023376 62.69390015 -0.13023376 86.15390015 C4.15976624 86.48390015 8.44976624 86.81390015 12.86976624 87.15390015 C17.80354223 89.24701724 20.7462806 91.15746335 22.86976624 96.15390015 C22.86976624 97.47390015 22.86976624 98.79390015 22.86976624 100.15390015 C23.37765686 99.70659546 23.88554749 99.25929077 24.40882874 98.7984314 C26.55757508 96.91123658 28.7124787 95.03132335 30.86976624 93.15390015 C31.45113342 92.64472046 32.03250061 92.13554077 32.63148499 91.6109314 C36.67721847 88.13588072 39.39170574 87.03406225 44.66557312 87.00241089 C46.14627541 86.9898954 46.14627541 86.9898954 47.65689087 86.97712708 C48.7385704 86.97294266 49.82024994 86.96875824 50.93470764 86.96444702 C52.07470718 86.95615372 53.21470673 86.94786041 54.38925171 86.9393158 C56.86759164 86.9219025 59.34594816 86.9067392 61.82431412 86.89353943 C65.73984887 86.87255087 69.65529992 86.84552653 73.57078552 86.81686401 C82.58632223 86.75167545 91.60191379 86.6961888 100.61751556 86.64087677 C109.54051931 86.5860415 118.46347663 86.52740216 127.38640976 86.46202087 C131.25589926 86.43534271 135.12539276 86.41459283 138.99491882 86.39401245 C141.35115259 86.37741835 143.70738443 86.3605473 146.06361389 86.34335327 C147.14934189 86.33916885 148.23506989 86.33498444 149.35369873 86.33067322 C150.82594154 86.31815773 150.82594154 86.31815773 152.32792664 86.3053894 C153.18590662 86.30023567 154.0438866 86.29508194 154.92786598 86.28977203 C156.87547901 86.36686328 156.87547901 86.36686328 157.86976624 85.15390015 C157.96402219 83.00646466 157.98719271 80.85588989 157.98329163 78.70639038 C157.98351067 77.69667679 157.98351067 77.69667679 157.98373413 76.66656494 C157.98303502 74.4318423 157.97524276 72.19720205 157.96742249 69.9624939 C157.9655583 68.41692653 157.9641344 66.87135857 157.96313477 65.32579041 C157.95930964 61.25032938 157.9494794 57.17490378 157.93843079 53.09945679 C157.92821655 48.94378132 157.92363712 44.78810016 157.91859436 40.63241577 C157.90785713 32.47289428 157.89078077 24.31340161 157.86976624 16.15390015 C156.77511047 16.1696106 155.68045471 16.18532104 154.55262756 16.20150757 C150.48059992 16.25592125 146.40860427 16.2902917 142.33631897 16.31869507 C140.57584727 16.33375568 138.81541294 16.35420841 137.05506897 16.38021851 C134.52055121 16.41672243 131.98653072 16.43365369 129.45179749 16.4468689 C128.66827408 16.46235275 127.88475067 16.47783661 127.07748413 16.49378967 C122.49024237 16.49519358 119.50176017 16.03402451 115.86976624 13.15390015 C114.32389748 10.06216263 114.57617102 7.55960462 114.86976624 4.15390015 C116.30384827 1.95834351 116.30384827 1.95834351 118.86976624 0.15390015 C121.99269244 -0.43036873 125.06772617 -0.38268697 128.23695374 -0.3421936 C129.14929779 -0.34364883 130.06164185 -0.34510406 131.00163269 -0.34660339 C132.92987767 -0.344945 134.85813597 -0.3333904 136.78627014 -0.31265259 C139.72743967 -0.28377 142.66679796 -0.29203062 145.60804749 -0.30508423 C147.48435828 -0.29884422 149.3606634 -0.29045122 151.23695374 -0.2796936 C152.54972794 -0.28409706 152.54972794 -0.28409706 153.88902283 -0.28858948 C160.32758424 -0.18989814 164.42566483 1.22135485 169.55726624 5.27890015 C175.99014662 13.27653522 175.31461054 23.03330928 175.26820374 32.81015015 C175.27022911 34.32272481 175.27314438 35.83529852 175.27690125 37.34786987 C175.28130286 40.50482559 175.27496394 43.66152519 175.26087952 46.81845093 C175.24378869 50.8430343 175.25364159 54.86701726 175.27159691 58.89157867 C175.28249367 62.01106196 175.27896158 65.13040544 175.27121353 68.24989319 C175.26922776 69.73289564 175.27161304 71.21591124 175.27865219 72.69889832 C175.34579107 90.81422233 175.34579107 90.81422233 169.96742249 97.52890015 C169.29582092 98.06515015 168.62421936 98.60140015 167.93226624 99.15390015 C167.2632428 99.71077515 166.59421936 100.26765015 165.90492249 100.84140015 C162.41086224 103.09476722 159.20276092 103.27439131 155.11279297 103.18426514 C154.15871048 103.16659592 153.20462799 103.1489267 152.22163391 103.13072205 C151.1811792 103.10662766 150.14072449 103.08253326 149.06874084 103.05770874 C146.78514333 103.01495921 144.50152697 102.97320769 142.21789551 102.93231201 C140.3997424 102.89854021 140.3997424 102.89854021 138.54485893 102.86408615 C131.42670781 102.74758352 124.3077996 102.70304777 117.18889415 102.6562202 C109.67211427 102.60651459 102.1588549 102.52742506 94.64393616 102.34823608 C88.0186571 102.19044428 81.39726066 102.13498663 74.76979256 102.13798904 C72.25912711 102.12273376 69.74841193 102.07432688 67.23910332 101.99039841 C51.59933301 101.41141238 51.59933301 101.41141238 38.14054871 108.45108032 C33.99295627 112.42388587 30.26386054 116.67308279 26.75164127 121.21506691 C24.5684147 123.46437261 22.86264125 124.27744455 19.86976624 125.15390015 C15.68545771 125.07918035 13.52730241 124.65062068 10.17054749 122.11483765 C7.12535279 118.19589439 7.27858601 115.63898748 7.55726624 110.84140015 C7.57982483 110.10083374 7.60238342 109.36026733 7.62562561 108.59725952 C7.68418474 106.78192657 7.77385737 104.96764334 7.86976624 103.15390015 C7.16851624 103.2003064 6.46726624 103.24671265 5.74476624 103.29452515 C-0.82925996 103.54462397 -5.72650372 103.10130578 -11.13023376 99.15390015 C-16.07330486 93.95066742 -17.42999354 89.81810753 -17.42076111 82.74252319 C-17.42747833 82.0021582 -17.43419556 81.26179321 -17.44111633 80.49899292 C-17.46009398 78.05446638 -17.46402059 75.6102145 -17.46617126 73.1656189 C-17.47260012 71.46174508 -17.47932855 69.75787236 -17.48634338 68.05400085 C-17.4983161 64.48221275 -17.50202429 60.91052135 -17.50083923 57.3387146 C-17.50063622 52.77229638 -17.52792 48.20650173 -17.56238365 43.64023113 C-17.5846751 40.12022582 -17.58867607 36.60036994 -17.58761978 33.08030128 C-17.58997306 31.39745755 -17.59878123 29.71460952 -17.61428452 28.03183556 C-17.63398766 25.67193983 -17.62809027 23.31338017 -17.61607361 20.95346069 C-17.62731262 20.26490494 -17.63855164 19.57634918 -17.65013123 18.8669281 C-17.57366836 12.92659875 -15.53529031 8.77652905 -11.53257751 4.41171265 C-7.63839436 1.40021101 -4.89292937 0.03737608 0 0 Z " fill="#000000" transform="translate(144.13023376464844,113.84609985351563)"/>
<path d="M0 0 C1.15483383 -0.0071553 2.30966766 -0.01431061 3.49949646 -0.02168274 C7.32233055 -0.03861133 11.14399889 -0.01914091 14.96679688 0.00219727 C17.61952283 0.00136896 20.27220802 -0.00103339 22.92492676 -0.00511169 C28.48670919 -0.00963194 34.04815524 0.00623238 39.60986328 0.03417969 C46.03796433 0.06623174 52.46545872 0.06621593 58.89360285 0.04896492 C65.07985693 0.03309528 71.26588881 0.03983604 77.45213318 0.05690193 C80.08360801 0.06209231 82.71510031 0.06159163 85.34657288 0.05535698 C89.02179791 0.04991852 92.69598671 0.07023833 96.37109375 0.09765625 C97.46316635 0.09113037 98.55523895 0.08460449 99.68040466 0.07788086 C101.18190819 0.09696754 101.18190819 0.09696754 102.71374512 0.11643982 C103.58240959 0.11924674 104.45107407 0.12205366 105.34606171 0.12494564 C108.46758751 0.80030144 109.68772261 2.1980508 111.68554688 4.63110352 C112.39436991 7.53895233 112.02526476 9.57364252 111.68554688 12.63110352 C109.87391421 15.30541841 108.80793611 15.59030711 105.68554688 16.63110352 C104.1234384 16.72654181 102.55759559 16.7659953 100.99258423 16.77154541 C99.54579536 16.78011063 99.54579536 16.78011063 98.06977844 16.78884888 C97.01308456 16.78996674 95.95639069 16.79108459 94.86767578 16.79223633 C93.19657494 16.79968369 93.19657494 16.79968369 91.49171448 16.80728149 C87.79850654 16.82191196 84.10534155 16.82870626 80.41210938 16.83422852 C77.85004678 16.83997879 75.2879842 16.84573653 72.72592163 16.85150146 C68.03809018 16.86066953 63.35027595 16.86696913 58.66243708 16.86999822 C51.76588913 16.8744792 44.86953936 16.89203067 37.97305167 16.92099881 C31.99670395 16.94522943 26.02044993 16.95294295 20.04404831 16.95467377 C17.50269873 16.95770437 14.96135006 16.96574654 12.4200325 16.97885895 C8.86727055 16.99588299 5.31499304 16.99404793 1.76220703 16.98754883 C0.18323891 17.001371 0.18323891 17.001371 -1.42762756 17.01547241 C-10.42552149 16.96382077 -10.42552149 16.96382077 -14.31445312 13.63110352 C-15.74107531 10.77785914 -15.6247918 8.79655803 -15.31445312 5.63110352 C-12.01403475 -1.05780017 -6.59511105 -0.0706101 0 0 Z " fill="#000000" transform="translate(174.314453125,171.368896484375)"/>
<path d="M0 0 C1.00100235 -0.0112793 2.0020047 -0.02255859 3.03334045 -0.03417969 C4.67144936 -0.0220343 4.67144936 -0.0220343 6.34265137 -0.00964355 C7.4974852 -0.01665283 8.65231903 -0.02366211 9.84214783 -0.03088379 C13.66482488 -0.04850909 17.48676347 -0.03682409 21.30944824 -0.02331543 C23.9621676 -0.02600902 26.61486441 -0.029884 29.26757812 -0.03491211 C34.82930524 -0.04218728 40.39081981 -0.03260447 45.95251465 -0.0135498 C52.3806011 0.00821899 58.80818006 0.0011675 65.23625422 -0.02085543 C70.75741495 -0.03901338 76.27842299 -0.04156592 81.79960394 -0.03110075 C85.09624305 -0.02486784 88.39259159 -0.02559701 91.68922424 -0.0372467 C95.36441564 -0.04738333 99.03862689 -0.03194973 102.71374512 -0.00964355 C103.80581772 -0.01774048 104.89789032 -0.0258374 106.02305603 -0.03417969 C107.52455956 -0.01726074 107.52455956 -0.01726074 109.05639648 0 C110.3593932 0.00226215 110.3593932 0.00226215 111.68871307 0.00457001 C114.84797084 0.68431717 116.05323144 1.99748448 118.02819824 4.50793457 C118.52819824 8.00793457 118.52819824 8.00793457 118.02819824 11.50793457 C115.80956795 14.4151053 114.50874896 15.347751 111.02819824 16.50793457 C109.49136794 16.6011869 107.95081705 16.63851616 106.41116333 16.64164734 C104.98961693 16.64804482 104.98961693 16.64804482 103.53935242 16.65457153 C101.98236382 16.65389175 101.98236382 16.65389175 100.3939209 16.65319824 C98.75208076 16.65823616 98.75208076 16.65823616 97.07707214 16.66337585 C93.44879022 16.6728962 89.82055439 16.67482952 86.19226074 16.67590332 C83.67503846 16.67911517 81.15781637 16.68247919 78.64059448 16.68598938 C73.35963643 16.69198338 68.07869012 16.69387176 62.79772949 16.6932373 C56.69757759 16.69263671 50.59751418 16.70318523 44.49738467 16.71898097 C38.62569549 16.73364243 32.7540413 16.73722509 26.88233566 16.73662758 C24.38565077 16.73780903 21.88896526 16.74223998 19.39229202 16.74995995 C15.9018746 16.75974181 12.41168564 16.75688877 8.92126465 16.75085449 C7.37034874 16.75928375 7.37034874 16.75928375 5.7881012 16.7678833 C4.83476395 16.76368881 3.8814267 16.75949432 2.89920044 16.75517273 C2.074405 16.7557175 1.24960957 16.75626226 0.39982033 16.75682354 C-2.39401513 16.46362555 -4.46547698 15.7738053 -6.97180176 14.50793457 C-9.45219083 10.78735097 -9.43517379 8.90996886 -8.97180176 4.50793457 C-6.21865563 0.98607043 -4.43671944 0.00770266 0 0 Z " fill="#000000" transform="translate(261.9718017578125,57.4920654296875)"/>
<path d="M0 0 C1.29063354 -0.00241196 2.58126709 -0.00482391 3.91101074 -0.00730896 C6.6380984 -0.01016184 9.36436241 0.00448161 12.09130859 0.03198242 C15.57857942 0.06606662 19.06437834 0.06004343 22.55171967 0.04131985 C25.88879153 0.02818122 29.22543838 0.04647296 32.5625 0.0625 C34.43609192 0.0550602 34.43609192 0.0550602 36.34753418 0.04747009 C37.51224243 0.06330643 38.67695068 0.07914276 39.87695312 0.09545898 C41.40987 0.10475685 41.40987 0.10475685 42.97375488 0.11424255 C46.51222754 0.76290741 48.2145996 2.15774629 50.78125 4.62890625 C51.4453125 6.62890625 51.4453125 6.62890625 51.40625 8.62890625 C51.42558594 9.61890625 51.42558594 9.61890625 51.4453125 10.62890625 C50.41252216 13.73942774 48.45458571 14.82462393 45.78125 16.62890625 C42.97375488 17.14356995 42.97375488 17.14356995 39.87695312 17.16235352 C38.71224487 17.17818985 37.54753662 17.19402618 36.34753418 17.21034241 C35.0984729 17.20538254 33.84941162 17.20042267 32.5625 17.1953125 C30.62654968 17.20461037 30.62654968 17.20461037 28.65148926 17.21409607 C25.92454132 17.22448344 23.19811577 17.21996316 20.47119141 17.20532227 C16.98377766 17.18812685 13.49801042 17.21164372 10.01078033 17.24681187 C6.673757 17.27410295 3.33712975 17.26404898 0 17.2578125 C-1.24906128 17.27107071 -2.49812256 17.28432892 -3.78503418 17.29798889 C-13.41013859 17.19441574 -13.41013859 17.19441574 -16.50585938 14.27709961 C-18.635405 10.98474194 -19.01981033 9.47399585 -18.21875 5.62890625 C-13.81733185 -1.17585183 -7.4734039 -0.07932673 0 0 Z " fill="#000000" transform="translate(177.21875,143.37109375)"/>
<path d="M0 0 C1.81207947 -0.01879967 1.81207947 -0.01879967 3.6607666 -0.03797913 C5.61242737 -0.01809181 5.61242737 -0.01809181 7.60351562 0.00219727 C8.95585318 0.00136827 10.30819063 -0.00109228 11.66052246 -0.00511169 C14.49192713 -0.00796766 17.32253986 0.0067095 20.15380859 0.03417969 C23.77907225 0.06826415 27.4029202 0.0622435 31.02825165 0.04351711 C33.81992343 0.03293695 36.61126704 0.04189375 39.40290833 0.05690193 C41.38818035 0.06458948 43.37349217 0.05723529 45.35876465 0.04966736 C46.56681763 0.06550369 47.77487061 0.08134003 49.01953125 0.09765625 C50.08224243 0.10385483 51.14495361 0.11005341 52.23986816 0.11643982 C55.67919559 0.75548765 56.86651691 1.92217438 59.00976562 4.63110352 C59.71858866 7.53895233 59.34948351 9.57364252 59.00976562 12.63110352 C57.19813296 15.30541841 56.13215486 15.59030711 53.00976562 16.63110352 C51.17524697 16.72930986 49.33737601 16.76932124 47.50024414 16.77636719 C45.80817589 16.78593697 45.80817589 16.78593697 44.08192444 16.79570007 C42.25376442 16.79736931 42.25376442 16.79736931 40.38867188 16.79907227 C39.13722885 16.80240067 37.88578583 16.80572906 36.59642029 16.80915833 C33.94762622 16.81422503 31.29893474 16.81699883 28.65014648 16.81640625 C25.25950668 16.81630462 21.86907624 16.82996039 18.47848606 16.84717846 C15.24022249 16.86098355 12.00196089 16.86038746 8.76367188 16.86157227 C7.54692276 16.86875778 6.33017365 16.8759433 5.07655334 16.88334656 C3.37975685 16.87873161 3.37975685 16.87873161 1.64868164 16.87402344 C0.65401382 16.87544846 -0.34065399 16.87687347 -1.36546326 16.87834167 C-4.11673002 16.61918836 -5.69541001 16.14882422 -7.99023438 14.63110352 C-10.33192201 11.11857206 -10.48647115 9.76640996 -9.99023438 5.63110352 C-7.13899629 1.0390515 -5.36582623 0.00485611 0 0 Z " fill="#000000" transform="translate(320.990234375,29.368896484375)"/>
</svg>
